# xmcd CD database file
#
# Track frame offsets:
#	150
#	12810
#	25878
#	42422
#	60410
#	73835
#	88823
#	107844
#	124823
#	137573
#	156714
#	167825
#	181408
#	202290
#	221071
#	238496
#	258925
#	279161
#
# Disc length: 3864 seconds
#
# Revision: 0
# Processed by: cddbd v1.5.2PL0 Copyright (c) Steve Scherf et al.
# Submitted via: CDex 1.51
#
DISCID=150f1612
DTITLE=Various Artist - Feel Jazz for Christmas Cd1
DYEAR=2009
DGENRE=Jazz
TTITLE0=Mike Godreau  - Jingle Bell Rock
TTITLE1=Trisha Lee - Christmas Wish 
TTITLE2=Wonderful Christmastime - Wonderful Christmastime
TTITLE3=Lloyd Marcus  - Have Yourself A Merry Little Christmas
TTITLE4=Jazz Musican - Let It Snow, Let It Snow, Let It Snow
TTITLE5=Rosemary  Clooney -  Winter Wonderland
TTITLE6=Silver Bells - Silver Bells
TTITLE7=Jacqui Naylor - Winter
TTITLE8=JAZZ MUSICIAN - Santa Claus Is Coming To Town 
TTITLE9=All I Want For Christmas - Circle Link
TTITLE10=JAZZ MUSICIAN - Sleigh Ride
TTITLE11=Laura Vane - The Vipertones - Christmas Day With Me
TTITLE12=Christoph Spendel Christmas Jazz Trio - Angels We Have Heard On High
TTITLE13=First Take  - Christmas Can't Be Very Far Away
TTITLE14=Paul Langford  - Joyful Joyful
TTITLE15=First Take  - Like Christmas
TTITLE16=Jack Hoban  - Christmas With You
TTITLE17=Rosemary Clooney - Rudolph The Red Nosed Reindeer 
EXTD=YEAR: 2009
EXTT0=
EXTT1=
EXTT2=
EXTT3=
EXTT4=
EXTT5=
EXTT6=
EXTT7=
EXTT8=
EXTT9=
EXTT10=
EXTT11=
EXTT12=
EXTT13=
EXTT14=
EXTT15=
EXTT16=
EXTT17=
PLAYORDER=
